<svg xmlns="http://www.w3.org/2000/svg" width="40" height="40" viewBox="0 0 40 40">
  <rect width="40" height="40" rx="8" fill="#2f2e41"/>
  <g transform="translate(6 6)" fill="#17bf3e">
    <g transform="scale(0.0558)">
      <path d="M428.483,73.517C381.076,26.108,318.045,0,251,0C183.956,0,120.924,26.108,73.516,73.517C26.108,120.924,0,183.955,0,251s26.108,130.076,73.516,177.483C120.924,475.892,183.956,502,251,502c67.045,0,130.076-26.108,177.483-73.517C475.892,381.076,502,318.045,502,251S475.892,120.924,428.483,73.517z M251,482C123.626,482,20,378.374,20,251S123.626,20,251,20s231,103.626,231,231S378.374,482,251,482z"/>
      <path d="M251,217c-18.748,0-34,15.252-34,34s15.252,34,34,34s34-15.252,34-34S269.748,217,251,217z M251,265c-7.72,0-14-6.28-14-14c0-7.72,6.28-14,14-14c7.72,0,14,6.28,14,14C265,258.72,258.72,265,251,265z"/>
      <path d="M251,162c-49.075,0-89,39.925-89,89s39.925,89,89,89s89-39.925,89-89S300.075,162,251,162z M251,320c-38.047,0-69-30.953-69-69s30.953-69,69-69s69,30.953,69,69S289.047,320,251,320z"/>
      <path d="M213.989,61.366c0.601,0,1.21-0.054,1.823-0.167C227.334,59.076,239.173,58,251,58c5.522,0,10-4.478,10-10s-4.478-10-10-10c-13.039,0-26.097,1.188-38.811,3.53c-5.432,1-9.023,6.214-8.023,11.646C205.053,57.995,209.258,61.366,213.989,61.366z"/>
      <path d="M169.96,64.551c-2.451-4.949-8.449-6.97-13.4-4.521c-35.045,17.362-64.652,44.034-85.619,77.132C49.391,171.181,38,210.546,38,251c0,5.522,4.477,10,10,10s10-4.478,10-10c0-73.908,41.168-140.216,107.439-173.049C170.388,75.499,172.412,69.5,169.96,64.551z"/>
    </g>
  </g>
</svg>
