<svg xmlns="http://www.w3.org/2000/svg" width="40" height="40" viewBox="0 0 40 40"><rect width="40" height="40" fill="#ede9fe" rx="8" ry="8"/><g fill="none" stroke="#8b5cf6" stroke-linecap="round" stroke-linejoin="round" stroke-width="2.333" transform="translate(-593 -723)"><path d="M620 738.333a2.333 2.333 0 0 0 0-4.666 2.333 2.333 0 0 0-4.667 0 2.333 2.333 0 0 0-4.666 0 2.333 2.333 0 0 0-4.667 0 2.333 2.333 0 0 0 0 4.666m4.667 16.334-1.167-16.334m5.833 16.334 1.167-16.334"/><path d="M622.333 738.333c.584 0 1.05.467.934 1.167l-3.034 14c-.116.583-.816 1.167-1.4 1.167h-11.666c-.7 0-1.284-.467-1.4-1.167l-3.034-14c-.116-.7.35-1.167.934-1.167Z"/></g></svg>
