<svg xmlns="http://www.w3.org/2000/svg" data-stacking-context="true" width="40" height="40" viewBox="593 723 40 40"><rect width="40" height="40" x="593" y="723" fill="lab(93.0838 4.35197 -9.88284)" rx="8" ry="8"/><g data-view-box="0 0 24 24" data-width="24" data-height="24" color="lab(41.088 68.9966 -91.995)" fill="none" stroke="lab(41.088 68.9966 -91.995)" stroke-linecap="round" stroke-linejoin="round" stroke-width="2.333"><path d="M620 738.333a2.333 2.333 0 0 0 0-4.666 2.333 2.333 0 0 0-4.667 0 2.333 2.333 0 0 0-4.666 0 2.333 2.333 0 0 0-4.667 0 2.333 2.333 0 0 0 0 4.666m4.667 16.334-1.167-16.334m5.833 16.334 1.167-16.334"/><path d="M622.333 738.333c.584 0 1.05.467.934 1.167l-3.034 14c-.116.583-.816 1.167-1.4 1.167h-11.666c-.7 0-1.284-.467-1.4-1.167l-3.034-14c-.116-.7.35-1.167.934-1.167Z"/></g></svg>